<?xml version="1.0" encoding="utf-8"?> <!-- Generator: IcoMoon.io --> <!DOCTYPE svg PUBLIC "-//W3C//DTD SVG 1.1//EN" "http://www.w3.org/Graphics/SVG/1.1/DTD/svg11.dtd"> <svg width="500.00000000000006" height="500" viewBox="0 0 500 500" xmlns="http://www.w3.org/2000/svg" xmlns:xlink="http://www.w3.org/1999/xlink" fill="#aaaaaa"><path d="M 425.00,25.00l-55.00,0.00 C 356.20,25.00, 350.00,36.20, 350.00,50.00l0.00,425.00 l 100.00,0.00 L 450.00,50.00 C 450.00,36.20, 438.825,25.00, 425.00,25.00z M 275.00,175.00L 220.00,175.00 C 206.20,175.00, 200.00,186.20, 200.00,200.00l0.00,275.00 l 100.00,0.00 L 300.00,200.00 C 300.00,186.20, 288.825,175.00, 275.00,175.00z M 125.00,325.00L 70.00,325.00 C 56.20,325.00, 50.00,336.175, 50.00,350.00l0.00,125.00 l 100.00,0.00 l0.00-125.00 C 150.00,336.175, 138.80,325.00, 125.00,325.00z" ></path></svg>