<?xml version="1.0" encoding="utf-8"?> <!-- Generator: IcoMoon.io --> <!DOCTYPE svg PUBLIC "-//W3C//DTD SVG 1.1//EN" "http://www.w3.org/Graphics/SVG/1.1/DTD/svg11.dtd"> <svg width="500.00000000000006" height="500" viewBox="0 0 500 500" xmlns="http://www.w3.org/2000/svg" xmlns:xlink="http://www.w3.org/1999/xlink" fill="#aaaaaa"><path d="M 250.00,9.975c-132.35,0.00-240.00,107.70-240.00,240.025c0.00,132.35, 107.65,240.025, 240.00,240.025s 240.00-107.675, 240.00-240.025 C 490.00,117.675, 382.35,9.975, 250.00,9.975z M 454.70,250.00c0.00,46.825-15.90,90.025-42.40,124.525c-7.50-5.875-15.45-21.70-7.95-38.10 c 7.55-16.50, 9.525-54.70, 7.80-69.55c-1.65-14.85-9.375-50.65-30.375-51.00c-20.925-0.325-35.30-7.225-47.75-32.075 c-25.825-51.675, 48.475-61.625, 22.65-90.25c-7.225-8.025-44.575,33.10-50.05-21.70C 306.25,67.925, 310.00,62.05, 315.00,55.975 C 396.10,83.225, 454.70,159.875, 454.70,250.00z M 221.875,47.35C 217.00,56.85, 204.075,60.75, 196.20,67.925C 179.125,83.375, 171.775,81.25, 162.55,96.10 c-9.25,14.85-39.15,36.225-39.15,46.975c0.00,10.725, 15.10,23.425, 22.65,20.95c 7.55-2.50, 27.45-2.35, 39.15,1.75 c 11.725,4.15, 97.875,8.275, 70.40,81.10c-8.70,23.15-46.80,19.25-56.95,57.60c-1.525,5.625-6.775,29.65-7.15,37.50 c-0.60,12.15, 8.60,57.95-3.125,57.95c-11.775,0.00-43.425-40.975-43.425-48.40s-8.225-33.475-8.225-55.75s-37.925-21.925-37.925-51.55 c0.00-26.75, 20.575-40.05, 15.95-52.825c-4.55-12.75-40.675-13.20-55.725-14.75C 85.325,108.35, 147.25,57.65, 221.875,47.35z M 185.625,444.25 c 12.30-6.475, 13.55-14.875, 24.70-15.325c 12.75-0.55, 23.125-4.975, 37.475-8.125c 12.775-2.775, 35.575-15.725, 55.70-17.375 c 16.925-1.40, 50.375,0.875, 59.375,17.225c-32.40,21.50-71.20,34.05-112.875,34.05C 227.50,454.70, 205.875,451.00, 185.625,444.25z" ></path></svg>