<?xml version="1.0" encoding="utf-8"?> <!-- Generator: IcoMoon.io --> <!DOCTYPE svg PUBLIC "-//W3C//DTD SVG 1.1//EN" "http://www.w3.org/Graphics/SVG/1.1/DTD/svg11.dtd"> <svg width="500.00000000000006" height="500" viewBox="0 0 500 500" xmlns="http://www.w3.org/2000/svg" xmlns:xlink="http://www.w3.org/1999/xlink" fill="#aaaaaa"><path d="M 39.85,132.15c 12.20,6.575, 181.225,97.35, 187.525,100.725C 233.65,236.25, 241.80,237.875, 250.00,237.875c 8.225,0.00, 16.375-1.625, 22.65-5.025 c 6.30-3.375, 175.30-94.15, 187.50-100.725C 472.375,125.575, 483.925,105.00, 461.50,105.00L 38.525,105.00 C 16.10,105.00, 27.625,125.575, 39.85,132.15z M 465.325,182.15 c-13.875,7.25-184.175,96.275-192.675,100.725S 258.225,287.90, 250.00,287.90c-8.20,0.00-14.125-0.575-22.625-5.025S 48.55,189.375, 34.70,182.15 C 24.925,177.05, 25.00,183.025, 25.00,187.625c0.00,4.60,0.00,183.375,0.00,183.375C 25.00,381.50, 38.975,395.00, 49.80,395.00l 400.425,0.00 c 10.85,0.00, 24.775-13.50, 24.775-23.975 c0.00,0.00,0.00-178.775,0.00-183.375C 475.00,183.025, 475.10,177.05, 465.325,182.15z" ></path></svg>