<?xml version="1.0" encoding="utf-8"?> <!-- Generator: IcoMoon.io --> <!DOCTYPE svg PUBLIC "-//W3C//DTD SVG 1.1//EN" "http://www.w3.org/Graphics/SVG/1.1/DTD/svg11.dtd"> <svg width="500.00000000000006" height="500" viewBox="0 0 500 500" xmlns="http://www.w3.org/2000/svg" xmlns:xlink="http://www.w3.org/1999/xlink" fill="#aaaaaa"><path d="M 492.075,125.60l-116.85-73.175c-5.175-3.25-11.65-3.25-16.825,0.00L 250.00,120.325L 141.60,52.45c-5.175-3.25-11.65-3.25-16.825,0.00 L 7.925,125.60C 3.025,128.675,0.00,134.25,0.00,140.225l0.00,292.675 c0.00,6.15, 3.15,11.85, 8.30,14.875s 11.425,2.95, 16.475-0.225l 108.40-67.90l 108.40,67.90 c 5.175,3.25, 11.65,3.25, 16.85,0.00l 108.40-67.90l 108.40,67.90C 477.80,449.175, 480.725,450.00, 483.65,450.00c 2.775,0.00, 5.55-0.75, 8.05-2.225 C 496.825,444.75, 500.00,439.05, 500.00,432.90L 500.00,140.225 C 500.00,134.25, 496.975,128.675, 492.075,125.60z M 116.825,350.075L 32.70,402.75L 32.70,149.90 l 84.125-52.675L 116.825,350.075 z M 233.65,402.75l-84.125-52.675L 149.525,97.225 l 84.125,52.675L 233.65,402.75 z M 350.475,350.075l-84.10,52.675L 266.375,149.90 l 84.10-52.675L 350.475,350.075 z M 467.275,402.75 l-84.10-52.675L 383.175,97.225 l 84.10,52.675L 467.275,402.75 z" ></path></svg>