<?xml version="1.0" encoding="utf-8"?> <!-- Generator: IcoMoon.io --> <!DOCTYPE svg PUBLIC "-//W3C//DTD SVG 1.1//EN" "http://www.w3.org/Graphics/SVG/1.1/DTD/svg11.dtd"> <svg width="500.00000000000006" height="500" viewBox="0 0 500 500" xmlns="http://www.w3.org/2000/svg" xmlns:xlink="http://www.w3.org/1999/xlink" fill="#aaaaaa"><path d="M 131.825,172.85c 5.025,0.00, 9.875,0.75, 14.425,2.175C 163.50,155.70, 182.625,138.10, 203.325,122.50C 202.475,118.875, 201.95,115.075, 201.95,111.15 c0.00-5.45, 0.90-10.65, 2.55-15.50C 181.325,79.00, 156.075,65.05, 129.275,54.25C 104.10,69.80, 82.175,90.075, 64.70,113.825 c 12.975,22.975, 28.425,44.40, 45.95,63.925C 117.075,174.625, 124.25,172.85, 131.825,172.85z M 82.90,221.775c0.00-6.85, 1.425-13.40, 3.975-19.325 C 71.20,185.20, 56.95,166.60, 44.475,146.75C 28.85,177.80, 20.00,212.875, 20.00,250.00c0.00,43.025, 11.85,83.25, 32.40,117.675 c 7.325-41.375, 21.275-80.50, 40.50-116.35C 86.65,243.125, 82.90,232.90, 82.90,221.775z M 250.875,62.20c 12.95,0.00, 24.65,5.05, 33.40,13.225 c 25.525-10.975, 52.425-19.40, 80.40-24.775C 330.90,31.20, 291.775,20.00, 250.00,20.00c-28.475,0.00-55.725,5.225-80.875,14.70 c 19.975,9.875, 39.025,21.35, 56.90,34.35C 233.325,64.725, 241.80,62.20, 250.875,62.20z M 324.075,292.70c 3.05-6.35, 7.375-11.95, 12.725-16.40 c-14.45-44.45-37.325-85.10-66.80-120.10c-5.875,2.50-12.325,3.875-19.125,3.875c-10.60,0.00-20.40-3.425-28.425-9.15 c-17.75,13.475-34.15,28.60-49.075,45.10C 178.025,203.50, 180.75,212.30, 180.75,221.775c0.00,5.125-0.775,10.025-2.225,14.675 C 221.45,265.125, 270.85,284.80, 324.075,292.70z M 387.55,358.775c 0.65,9.25, 1.025,18.60, 1.025,28.025c0.00,16.625-1.075,32.95-3.075,49.025 c 39.025-28.50, 68.70-68.925, 83.70-115.975c-17.75,4.30-35.95,7.375-54.525,9.15C 410.30,342.375, 400.35,353.225, 387.55,358.775z M 312.60,325.575c-56.775-9.40-109.425-31.05-155.225-62.10c-7.45,4.575-16.15,7.25-25.525,7.25c-3.45,0.00-6.775-0.375-10.025-1.05 c-21.925,41.60-35.95,88.00-40.00,137.15c 21.90,23.475, 48.625,42.375, 78.65,55.075C 197.725,404.625, 249.825,357.20, 312.60,325.575z M 404.40,79.55 c-36.85,3.55-72.05,12.80-104.825,26.70c 0.20,1.60, 0.275,3.25, 0.275,4.90c0.00,7.725-1.825,15.00-5.025,21.475 c 32.75,38.45, 58.175,83.25, 74.25,132.275c 19.875,0.375, 36.90,12.55, 44.225,29.875c 22.15-2.25, 43.70-6.50, 64.475-12.60 C 479.20,271.675, 480.00,260.95, 480.00,250.00C 480.00,182.40, 450.825,121.60, 404.40,79.55z M 337.225,351.725c-58.625,27.45-107.60,69.725-143.10,121.40 C 212.00,477.60, 230.725,480.00, 250.00,480.00c 34.725,0.00, 67.575-7.725, 97.075-21.475c 4.725-23.175, 7.25-47.15, 7.25-71.725 c0.00-8.85-0.425-17.65-1.075-26.375C 347.35,358.55, 341.925,355.575, 337.225,351.725z" ></path></svg>