<?xml version="1.0" encoding="utf-8"?> <!-- Generator: IcoMoon.io --> <!DOCTYPE svg PUBLIC "-//W3C//DTD SVG 1.1//EN" "http://www.w3.org/Graphics/SVG/1.1/DTD/svg11.dtd"> <svg width="500.00000000000006" height="500" viewBox="0 0 500 500" xmlns="http://www.w3.org/2000/svg" xmlns:xlink="http://www.w3.org/1999/xlink" fill="#aaaaaa"><path d="M 467.35,65.875C 458.775,68.90, 34.325,218.45, 25.975,221.40c-7.10,2.50-8.70,8.625-0.25,11.975 c 10.025,4.025, 94.90,38.025, 94.90,38.025L 120.60,271.40 l 56.275,22.55c0.00,0.00, 270.925-198.975, 274.60-201.65c 3.675-2.70, 7.95,2.375, 5.275,5.275 c-2.675,2.925-196.775,212.85-196.775,212.85c-0.025,0.00-0.025,0.00-0.025,0.00l-11.30,12.60l 14.975,8.05l0.00,0.00c0.00,0.00, 116.25,62.575, 124.525,67.05 c 7.25,3.90, 16.70,0.65, 18.80-8.375c 2.475-10.65, 71.125-306.55, 72.65-313.10C 481.60,68.075, 475.95,62.85, 467.35,65.875z M 176.375,429.05 c0.00,6.175, 3.475,7.875, 8.275,3.525c 6.25-5.70, 71.225-64.00, 71.225-64.00l-79.50-41.15L 176.375,429.05 z" ></path></svg>