<?xml version="1.0" encoding="utf-8"?> <!-- Generator: IcoMoon.io --> <!DOCTYPE svg PUBLIC "-//W3C//DTD SVG 1.1//EN" "http://www.w3.org/Graphics/SVG/1.1/DTD/svg11.dtd"> <svg width="500.00000000000006" height="500" viewBox="0 0 500 500" xmlns="http://www.w3.org/2000/svg" xmlns:xlink="http://www.w3.org/1999/xlink" fill="#aaaaaa"><path d="M 250.00,35.00c-118.725,0.00-215.00,96.275-215.00,215.00c0.00,118.75, 96.275,215.00, 215.00,215.00c 118.75,0.00, 215.00-96.25, 215.00-215.00C 465.00,131.275, 368.75,35.00, 250.00,35.00z M 267.50,424.125L 267.50,327.50 L 232.50,327.50 l0.00,96.625 c-82.675-8.20-148.40-73.95-156.625-156.625L 172.50,267.50 L 172.50,232.50 L 75.875,232.50 C 84.10,149.825, 149.825,84.075, 232.50,75.875L 232.50,172.50 l 35.00,0.00 L 267.50,75.875 c 82.70,8.20, 148.425,73.95, 156.625,156.625L 327.50,232.50 l0.00,35.00 l 96.625,0.00 C 415.925,350.175, 350.20,415.925, 267.50,424.125z" ></path></svg>