<?xml version="1.0" encoding="utf-8"?> <!-- Generator: IcoMoon.io --> <!DOCTYPE svg PUBLIC "-//W3C//DTD SVG 1.1//EN" "http://www.w3.org/Graphics/SVG/1.1/DTD/svg11.dtd"> <svg width="500.00000000000006" height="500" viewBox="0 0 500 500" xmlns="http://www.w3.org/2000/svg" xmlns:xlink="http://www.w3.org/1999/xlink" fill="#aaaaaa"><path d="M 370.50,361.20c-61.625-22.45-81.325-41.40-81.325-81.975c0.00-24.35, 18.825-16.40, 27.075-61.00c 3.425-18.50, 20.05-0.30, 23.25-42.525 c0.00-16.825-9.075-21.025-9.075-21.025s 4.625-24.925, 6.425-44.075C 339.05,86.70, 323.05,25.00, 237.50,25.00C 151.975,25.00, 135.925,86.70, 138.175,110.60 C 139.975,129.75, 144.60,154.675, 144.60,154.675S 135.50,158.85, 135.50,175.70c 3.175,42.225, 19.80,24.025, 23.225,42.525 c 8.275,44.60, 27.10,36.65, 27.10,61.00c0.00,40.575-19.70,59.525-81.325,81.975c-61.85,22.50-102.00,45.475-102.00,61.15c0.00,15.65,0.00,52.625,0.00,52.625 l 235.00,0.00 l 235.00,0.00 c0.00,0.00,0.00-36.975,0.00-52.625C 472.50,406.70, 432.325,383.725, 370.50,361.20z" ></path></svg>