<?xml version="1.0" encoding="utf-8"?> <!-- Generator: IcoMoon.io --> <!DOCTYPE svg PUBLIC "-//W3C//DTD SVG 1.1//EN" "http://www.w3.org/Graphics/SVG/1.1/DTD/svg11.dtd"> <svg width="558" height="54" viewBox="0 0 558 54" fill="#008080" xmlns="http://www.w3.org/2000/svg" xmlns:xlink="http://www.w3.org/1999/xlink"><path d="M 1.435,4.757c 0.439,0.237, 6.524,3.505, 6.751,3.626C 8.411,8.505, 8.705,8.563, 9.00,8.563c 0.296,0.00, 0.589-0.058, 0.815-0.181 c 0.227-0.121, 6.311-3.389, 6.75-3.626C 17.005,4.521, 17.421,3.78, 16.614,3.78L 1.387,3.78 C 0.58,3.78, 0.994,4.521, 1.435,4.757z M 16.752,6.557 c-0.499,0.261-6.63,3.466-6.936,3.626S 9.296,10.364, 9.00,10.364c-0.295,0.00-0.508-0.021-0.814-0.181S 1.748,6.817, 1.249,6.557 C 0.897,6.374, 0.90,6.589, 0.90,6.754c0.00,0.166,0.00,6.601,0.00,6.601C 0.90,13.734, 1.403,14.22, 1.793,14.22l 14.415,0.00 c 0.391,0.00, 0.892-0.486, 0.892-0.863 c0.00,0.00,0.00-6.436,0.00-6.601C 17.10,6.589, 17.104,6.374, 16.752,6.557zM 52.825,2.371C 52.516,2.48, 37.236,7.864, 36.935,7.97c-0.256,0.09-0.313,0.31-0.009,0.431 c 0.361,0.145, 3.416,1.369, 3.416,1.369L 40.342,9.77 l 2.026,0.812c0.00,0.00, 9.753-7.163, 9.886-7.259c 0.132-0.097, 0.286,0.085, 0.19,0.19 c-0.096,0.105-7.084,7.663-7.084,7.663c-0.001,0.00-0.001,0.00-0.001,0.00l-0.407,0.454l 0.539,0.29l0.00,0.00c0.00,0.00, 4.185,2.253, 4.483,2.414 c 0.261,0.14, 0.601,0.023, 0.677-0.301c 0.089-0.383, 2.56-11.036, 2.615-11.272C 53.338,2.451, 53.134,2.263, 52.825,2.371z M 42.349,15.446 c0.00,0.222, 0.125,0.283, 0.298,0.127c 0.225-0.205, 2.564-2.304, 2.564-2.304l-2.862-1.481L 42.349,15.446 zM 86.905,3.094c-1.298-1.299-2.272-1.104-2.272-1.104L 80.085,6.538L 74.889,11.733L 73.98,16.02l 4.287-0.909l 5.196-5.196l 4.547-4.547 C 88.009,5.368, 88.204,4.394, 86.905,3.094z M 78.011,14.595l-1.461,0.315c-0.141-0.264-0.311-0.527-0.622-0.839 c-0.31-0.31-0.575-0.48-0.839-0.621l 0.316-1.462l 0.422-0.422c0.00,0.00, 0.796,0.016, 1.693,0.913c 0.898,0.898, 0.914,1.694, 0.914,1.694 L 78.011,14.595zM 125.405,8.589c-0.354-0.375-2.056-2.045-2.834-2.807c-0.239-0.233-0.581-0.382-0.939-0.382c-0.356,0.00-4.631,0.00-4.631,0.00 s-4.275,0.00-4.632,0.00S 111.668,5.549, 111.43,5.782c-0.778,0.762-2.482,2.432-2.835,2.807c-0.44,0.468-0.681,0.841-0.566,1.304l 0.505,2.767 c 0.114,0.463, 0.621,0.841, 1.126,0.841l 14.681,0.00 c 0.505,0.00, 1.012-0.379, 1.126-0.841l 0.506-2.767C 126.086,9.431, 125.845,9.057, 125.405,8.589 z M 120.643,9.188c-0.092,0.00-0.174,0.047-0.215,0.12l-0.735,1.832L 114.308,11.14 l-0.735-1.832c-0.04-0.073-0.124-0.12-0.215-0.12L 110.167,9.188 l 1.837-2.078l 9.994,0.00 l 1.836,2.078L 120.643,9.188 zM 157.338,13.003c-2.218-0.808-2.928-1.49-2.928-2.951c0.00-0.877, 0.678-0.59, 0.975-2.196c 0.123-0.666, 0.722-0.011, 0.837-1.531 c0.00-0.606-0.327-0.757-0.327-0.757s 0.166-0.897, 0.231-1.587C 156.206,3.121, 155.63,0.90, 152.55,0.90C 149.471,0.90, 148.893,3.121, 148.974,3.982 C 149.039,4.671, 149.206,5.568, 149.206,5.568S 148.878,5.719, 148.878,6.325c 0.114,1.52, 0.713,0.865, 0.836,1.531 c 0.298,1.606, 0.976,1.319, 0.976,2.196c0.00,1.461-0.709,2.143-2.928,2.951c-2.227,0.81-3.672,1.637-3.672,2.201c0.00,0.563,0.00,1.894,0.00,1.894 l 8.46,0.00 l 8.46,0.00 c0.00,0.00,0.00-1.331,0.00-1.894C 161.01,14.641, 159.564,13.814, 157.338,13.003zM 189.00,1.80C 186.514,1.80, 184.50,3.815, 184.50,6.30c0.00,4.297, 4.50,9.90, 4.50,9.90s 4.50-5.603, 4.50-9.90C 193.50,3.815, 191.486,1.80, 189.00,1.80z M 189.00,8.784c-1.342,0.00-2.43-1.088-2.43-2.43 s 1.088-2.43, 2.43-2.43s 2.43,1.088, 2.43,2.43S 190.342,8.784, 189.00,8.784zM 233.715,4.522l-4.207-2.634c-0.186-0.117-0.419-0.117-0.606,0.00L 225.00,4.332L 221.098,1.888c-0.186-0.117-0.419-0.117-0.606,0.00 L 216.285,4.522C 216.109,4.632, 216.00,4.833, 216.00,5.048l0.00,10.536 c0.00,0.221, 0.113,0.427, 0.299,0.535s 0.411,0.106, 0.593-0.008l 3.902-2.444l 3.902,2.444 c 0.186,0.117, 0.419,0.117, 0.607,0.00l 3.902-2.444l 3.902,2.444C 233.201,16.17, 233.306,16.20, 233.411,16.20c 0.10,0.00, 0.20-0.027, 0.29-0.08 C 233.886,16.011, 234.00,15.806, 234.00,15.584L 234.00,5.048 C 234.00,4.833, 233.891,4.632, 233.715,4.522z M 220.206,12.603L 217.177,14.499L 217.177,5.396 l 3.028-1.896L 220.206,12.603 z M 224.411,14.499l-3.028-1.896L 221.383,3.50 l 3.028,1.896L 224.411,14.499 z M 228.617,12.603l-3.028,1.896L 225.589,5.396 l 3.028-1.896L 228.617,12.603 z M 232.822,14.499 l-3.028-1.896L 229.794,3.50 l 3.028,1.896L 232.822,14.499 zM 260.885,0.361C 256.113,0.425, 252.297,4.344, 252.361,9.115c 0.064,4.772, 3.983,8.588, 8.755,8.525 c 4.771-0.065, 8.588-3.983, 8.524-8.755C 269.574,4.113, 265.655,0.297, 260.885,0.361z M 261.091,15.82c-3.766,0.051-6.861-2.962-6.912-6.729 C 254.129,5.324, 257.142,2.23, 260.909,2.18c 3.766-0.05, 6.861,2.962, 6.911,6.729S 264.858,15.769, 261.091,15.82z M 256.908,13.054 c0.00,0.00, 4.112-0.564, 5.866-2.318c 1.754-1.754, 2.318-5.866, 2.318-5.866S 260.981,5.434, 259.227,7.187C 257.473,8.942, 256.908,13.054, 256.908,13.054z M 260.114,8.075C 260.851,7.337, 262.26,6.814, 263.47,6.489c-0.325,1.207-0.85,2.627-1.583,3.359c-0.49,0.49-1.283,0.49-1.773,0.00 C 259.623,9.358, 259.623,8.564, 260.114,8.075zM 305.747,0.252c-0.612-0.613-1.197-0.033-3.181,0.92C 297.256,3.725, 288.00,8.911, 288.00,8.911l 7.951,1.137L 297.088,18.00 c0.00,0.00, 5.187-9.256, 7.739-14.566C 305.782,1.449, 306.36,0.866, 305.747,0.252z M 303.84,2.299l-5.776,10.725l-0.586-4.874L 303.84,2.299zM 333.00,1.26c-4.274,0.00-7.74,3.466-7.74,7.74c0.00,4.275, 3.466,7.74, 7.74,7.74c 4.275,0.00, 7.74-3.465, 7.74-7.74C 340.74,4.726, 337.275,1.26, 333.00,1.26z M 333.63,15.268L 333.63,11.79 L 332.37,11.79 l0.00,3.478 c-2.976-0.295-5.342-2.662-5.638-5.638L 330.21,9.63 L 330.21,8.37 L 326.731,8.37 C 327.028,5.394, 329.394,3.027, 332.37,2.731L 332.37,6.21 l 1.26,0.00 L 333.63,2.731 c 2.977,0.295, 5.343,2.662, 5.638,5.638L 335.79,8.37 l0.00,1.26 l 3.478,0.00 C 338.973,12.606, 336.607,14.973, 333.63,15.268zM 376.893,9.27l-7.222-7.228c-0.369-0.383-0.973-0.383-1.342,0.00L 361.107,9.27c-0.37,0.382-0.232,0.697, 0.306,0.697l 1.506,0.00 l0.00,5.551 c0.00,0.40, 0.017,0.728, 0.742,0.728l 3.505,0.00 l0.00-5.569 l 3.667,0.00 l0.00,5.569 l 3.68,0.00 c 0.553,0.00, 0.568-0.327, 0.568-0.728l0.00-5.551 l 1.505,0.00 C 377.123,9.967, 377.262,9.653, 376.893,9.27zM 410.04,4.12c0.00-1.926,0.00-2.114,0.00-2.114C 410.04,1.295, 407.784,0.00, 405.00,0.00S 399.96,1.295, 399.96,2.006c0.00,0.00,0.00,0.188,0.00,2.114 c0.00,1.926, 3.489,3.516, 3.489,4.88c0.00,1.364-3.489,2.954-3.489,4.881c0.00,1.926,0.00,2.114,0.00,2.114C 399.96,16.705, 402.216,18.00, 405.00,18.00 s 5.04-1.295, 5.04-2.006c0.00,0.00,0.00-0.188,0.00-2.114c0.00-1.927-3.488-3.516-3.488-4.881C 406.552,7.636, 410.04,6.045, 410.04,4.12z M 401.346,2.096 c 0.626-0.395, 1.801-0.975, 3.703-0.975c 1.903,0.00, 3.605,0.975, 3.605,0.975c 0.128,0.077, 0.628,0.346, 0.285,0.548 c-0.755,0.447-2.231,0.918-3.94,0.918S 401.864,3.043, 401.109,2.596C 400.766,2.392, 401.346,2.096, 401.346,2.096z M 405.451,9.00 c0.00,1.074, 0.896,1.765, 1.847,2.687c 0.694,0.674, 1.642,1.597, 1.642,2.193l0.00,1.195 c-0.872-0.435-3.484-0.86-3.484-2.254 c0.00-0.706-0.913-0.706-0.913,0.00c0.00,1.393-2.612,1.819-3.484,2.254l0.00-1.195 c0.00-0.596, 0.949-1.519, 1.643-2.193 C 403.653,10.765, 404.549,10.074, 404.549,9.00c0.00-1.074-0.896-1.765-1.846-2.687C 402.009,5.638, 401.06,4.715, 401.06,4.12l-0.042-0.90 C 401.941,3.717, 403.405,4.191, 405.00,4.191s 3.066-0.474, 3.99-0.971l-0.049,0.90c0.00,0.595-0.949,1.518-1.642,2.192 C 406.347,7.235, 405.451,7.926, 405.451,9.00zM 436.746,6.223c 0.181,0.00, 0.355,0.027, 0.519,0.078C 437.886,5.605, 438.574,4.972, 439.32,4.41C 439.289,4.279, 439.27,4.143, 439.27,4.001 c0.00-0.196, 0.032-0.383, 0.092-0.558C 438.528,2.844, 437.619,2.342, 436.654,1.953C 435.748,2.513, 434.958,3.243, 434.329,4.098 c 0.467,0.827, 1.023,1.598, 1.654,2.301C 436.215,6.286, 436.473,6.223, 436.746,6.223z M 434.984,7.984c0.00-0.247, 0.051-0.482, 0.143-0.696 C 434.563,6.667, 434.05,5.998, 433.601,5.283C 433.039,6.401, 432.72,7.663, 432.72,9.00c0.00,1.549, 0.427,2.997, 1.166,4.236 c 0.264-1.489, 0.766-2.898, 1.458-4.189C 435.119,8.752, 434.984,8.384, 434.984,7.984z M 441.031,2.239c 0.466,0.00, 0.887,0.182, 1.202,0.476 c 0.919-0.395, 1.887-0.698, 2.894-0.892C 443.912,1.123, 442.504,0.72, 441.00,0.72c-1.025,0.00-2.006,0.188-2.911,0.529 c 0.719,0.355, 1.405,0.769, 2.048,1.237C 440.40,2.33, 440.705,2.239, 441.031,2.239z M 443.667,10.537c 0.11-0.229, 0.265-0.43, 0.458-0.59 c-0.52-1.60-1.344-3.064-2.405-4.324c-0.211,0.09-0.444,0.139-0.689,0.139c-0.382,0.00-0.734-0.123-1.023-0.329 c-0.639,0.485-1.229,1.03-1.767,1.624C 438.409,7.326, 438.507,7.643, 438.507,7.984c0.00,0.184-0.028,0.361-0.08,0.528 C 439.972,9.544, 441.751,10.253, 443.667,10.537z M 445.952,12.916c 0.023,0.333, 0.037,0.67, 0.037,1.009c0.00,0.598-0.039,1.186-0.111,1.765 c 1.405-1.026, 2.473-2.481, 3.013-4.175c-0.639,0.155-1.294,0.265-1.963,0.329C 446.771,12.325, 446.413,12.716, 445.952,12.916z M 443.254,11.721c-2.044-0.338-3.939-1.118-5.588-2.236c-0.268,0.165-0.581,0.261-0.919,0.261c-0.124,0.00-0.244-0.013-0.361-0.038 c-0.789,1.498-1.294,3.168-1.44,4.937c 0.788,0.845, 1.75,1.525, 2.831,1.983C 439.118,14.566, 440.994,12.859, 443.254,11.721z M 446.558,2.864 c-1.327,0.128-2.594,0.461-3.774,0.961c 0.007,0.058, 0.01,0.117, 0.01,0.176c0.00,0.278-0.066,0.54-0.181,0.773 c 1.179,1.384, 2.094,2.997, 2.673,4.762c 0.715,0.013, 1.328,0.452, 1.592,1.075c 0.797-0.081, 1.573-0.234, 2.321-0.454 C 449.251,9.78, 449.28,9.394, 449.28,9.00C 449.28,6.566, 448.23,4.378, 446.558,2.864z M 444.14,12.662c-2.111,0.988-3.874,2.51-5.152,4.37 C 439.632,17.194, 440.306,17.28, 441.00,17.28c 1.25,0.00, 2.433-0.278, 3.495-0.773c 0.17-0.834, 0.261-1.697, 0.261-2.582 c0.00-0.319-0.015-0.635-0.039-0.949C 444.505,12.908, 444.309,12.801, 444.14,12.662zM 477.00,0.359c-4.765,0.00-8.64,3.877-8.64,8.641c0.00,4.765, 3.875,8.641, 8.64,8.641s 8.64-3.876, 8.64-8.641 C 485.64,4.236, 481.765,0.359, 477.00,0.359z M 484.369,9.00c0.00,1.686-0.572,3.241-1.526,4.483c-0.27-0.211-0.556-0.781-0.286-1.372 c 0.272-0.594, 0.343-1.969, 0.281-2.504c-0.059-0.535-0.337-1.823-1.093-1.836c-0.753-0.012-1.271-0.26-1.719-1.155 c-0.93-1.86, 1.745-2.218, 0.815-3.249c-0.26-0.289-1.605,1.192-1.802-0.781C 479.025,2.445, 479.16,2.234, 479.34,2.015 C 482.26,2.996, 484.369,5.755, 484.369,9.00z M 475.987,1.705C 475.812,2.047, 475.347,2.187, 475.063,2.445C 474.448,3.001, 474.184,2.925, 473.852,3.46 c-0.333,0.535-1.409,1.304-1.409,1.691c0.00,0.386, 0.544,0.843, 0.815,0.754c 0.272-0.09, 0.988-0.085, 1.409,0.063 c 0.422,0.149, 3.523,0.298, 2.534,2.92c-0.313,0.833-1.685,0.693-2.05,2.074c-0.055,0.202-0.244,1.067-0.257,1.35 c-0.022,0.437, 0.31,2.086-0.112,2.086c-0.424,0.00-1.563-1.475-1.563-1.742s-0.296-1.205-0.296-2.007s-1.365-0.789-1.365-1.856 c0.00-0.963, 0.741-1.442, 0.574-1.902c-0.164-0.459-1.464-0.475-2.006-0.531C 471.072,3.901, 473.301,2.075, 475.987,1.705z M 474.682,15.993 c 0.443-0.233, 0.488-0.535, 0.889-0.552c 0.459-0.02, 0.832-0.179, 1.349-0.292c 0.46-0.10, 1.281-0.566, 2.005-0.625 c 0.609-0.05, 1.813,0.032, 2.137,0.62c-1.166,0.774-2.563,1.226-4.063,1.226C 476.19,16.369, 475.411,16.236, 474.682,15.993zM 519.054,11.556c-0.76,1.228-3.181,2.125-6.054,2.125c-2.871,0.00-5.295-0.897-6.053-2.125C 506.785,11.296, 506.70,11.435, 506.70,11.564 c0.00,0.13,0.00,1.802,0.00,1.802C 506.70,15.111, 509.521,16.92, 513.00,16.92s 6.30-1.809, 6.30-3.554c0.00,0.00,0.00-1.672,0.00-1.802C 519.30,11.435, 519.214,11.296, 519.054,11.556z M 519.063,6.952c-0.746,1.085-3.179,1.881-6.063,1.881s-5.317-0.796-6.063-1.881C 506.782,6.728, 506.70,6.85, 506.70,6.952c0.00,0.102,0.00,2.12,0.00,2.12 c0.00,1.587, 2.821,2.872, 6.30,2.872s 6.30-1.285, 6.30-2.872c0.00,0.00,0.00-2.019,0.00-2.12C 519.30,6.85, 519.217,6.728, 519.063,6.952z M 513.00,1.08 c-3.479,0.00-6.30,1.06-6.30,2.369l0.00,1.133 c0.00,1.388, 2.821,2.513, 6.30,2.513s 6.30-1.125, 6.30-2.513L 519.30,3.45 C 519.30,2.14, 516.479,1.08, 513.00,1.08zM 555.30,0.90l-1.98,0.00 C 552.823,0.90, 552.60,1.303, 552.60,1.80l0.00,15.30 l 3.60,0.00 L 556.20,1.80 C 556.20,1.303, 555.798,0.90, 555.30,0.90z M 549.90,6.30L 547.92,6.30 C 547.423,6.30, 547.20,6.703, 547.20,7.20l0.00,9.90 l 3.60,0.00 L 550.80,7.20 C 550.80,6.703, 550.398,6.30, 549.90,6.30z M 544.50,11.70L 542.52,11.70 C 542.023,11.70, 541.80,12.102, 541.80,12.60l0.00,4.50 l 3.60,0.00 l0.00-4.50 C 545.40,12.102, 544.997,11.70, 544.50,11.70zM 17.539,38.148l-4.166,6.787c-0.155,0.251-0.457,0.292-0.673,0.091l-2.014-1.886c-0.216-0.202-0.526-0.166-0.689,0.081 l-2.829,4.266c-0.163,0.246-0.475,0.284-0.694,0.086L 5.157,46.371c-0.219-0.199-0.548-0.173-0.733,0.057l-4.148,5.173 C 0.091,51.832, 0.182,52.02, 0.476,52.02l 17.344,0.00 L 17.82,38.228 C 17.821,37.931, 17.694,37.895, 17.539,38.148zM 45.00,37.44c-4.176,0.00-7.56,3.386-7.56,7.56c0.00,4.176, 3.385,7.56, 7.56,7.56c 4.175,0.00, 7.56-3.385, 7.56-7.56C 52.56,40.825, 49.175,37.44, 45.00,37.44z M 46.556,45.00l 2.755,2.755l-1.556,1.556L 45.00,46.556l-2.755,2.755l-1.555-1.556L 43.444,45.00l-2.754-2.754l 1.555-1.556L 45.00,43.444l 2.755-2.754 l 1.556,1.555L 46.556,45.00zM 81.00,37.802l-4.68,4.392l 2.97,0.00 l0.00,4.608 l 3.42,0.00 l0.00-4.608 l 2.971,0.00 L 81.00,37.802z M 89.406,48.19l-2.866-1.928l-1.767,0.00 l 3.06,2.347l-3.19,0.00 c-0.092,0.00-0.174,0.047-0.216,0.12l-0.734,2.011L 78.307,50.74 l-0.735-2.011c-0.04-0.073-0.124-0.12-0.216-0.12L 74.166,48.609 l 3.061-2.347L 75.46,46.262 l-2.865,1.928c-0.427,0.255-0.681,0.842-0.567,1.304l 0.505,2.767c 0.114,0.463, 0.622,0.841, 1.126,0.841l 14.682,0.00 c 0.506,0.00, 1.012-0.379, 1.127-0.841l 0.505-2.767C 90.088,49.031, 89.833,48.444, 89.406,48.19zM 121.935,43.707c-0.366,0.376-4.225,4.053-4.225,4.053C 117.513,47.96, 117.256,48.06, 117.00,48.06c-0.257,0.00-0.514-0.10-0.709-0.301 c0.00,0.00-3.859-3.676-4.226-4.053c-0.366-0.376-0.391-1.052,0.00-1.454c 0.392-0.401, 0.939-0.433, 1.418,0.00L 117.00,45.625l 3.516-3.372 c 0.481-0.433, 1.028-0.401, 1.418,0.00C 122.327,42.655, 122.303,43.331, 121.935,43.707zM 157.935,46.293c-0.366-0.376-4.225-4.052-4.225-4.052C 153.513,42.041, 153.256,41.94, 153.00,41.94c-0.257,0.00-0.514,0.101-0.709,0.301 c0.00,0.00-3.859,3.676-4.226,4.052c-0.366,0.376-0.391,1.053,0.00,1.454c 0.392,0.40, 0.939,0.433, 1.418,0.00L 153.00,44.375l 3.516,3.372 c 0.481,0.433, 1.028,0.40, 1.418,0.00C 158.327,47.345, 158.303,46.669, 157.935,46.293z"></path></svg>