<?xml version="1.0" encoding="utf-8"?> <!-- Generator: IcoMoon.io --> <!DOCTYPE svg PUBLIC "-//W3C//DTD SVG 1.1//EN" "http://www.w3.org/Graphics/SVG/1.1/DTD/svg11.dtd"> <svg width="500.00000000000006" height="500" viewBox="0 0 500 500" xmlns="http://www.w3.org/2000/svg" xmlns:xlink="http://www.w3.org/1999/xlink" fill="#008080"><path d="M 246.80,10.025C 114.25,11.80, 8.25,120.675, 10.025,253.20c 1.775,132.55, 110.65,238.55, 243.20,236.80 c 132.525-1.80, 238.55-110.65, 236.775-243.20C 488.175,114.25, 379.30,8.25, 246.80,10.025z M 252.525,439.45c-104.625,1.425-190.575-82.275-192.00-186.925 C 59.15,147.90, 142.825,61.95, 247.475,60.55c 104.625-1.40, 190.575,82.275, 191.975,186.925S 357.175,438.025, 252.525,439.45z M 136.325,362.60 c0.00,0.00, 114.225-15.675, 162.95-64.40c 48.725-48.725, 64.40-162.95, 64.40-162.95S 249.475,150.95, 200.75,199.65C 152.025,248.40, 136.325,362.60, 136.325,362.60z M 225.375,224.30C 245.85,203.80, 285.00,189.275, 318.60,180.25c-9.025,33.525-23.625,72.975-43.975,93.30c-13.60,13.60-35.65,13.60-49.25,0.00 C 211.75,259.95, 211.75,237.90, 225.375,224.30z" ></path></svg>