<?xml version="1.0" encoding="utf-8"?> <!-- Generator: IcoMoon.io --> <!DOCTYPE svg PUBLIC "-//W3C//DTD SVG 1.1//EN" "http://www.w3.org/Graphics/SVG/1.1/DTD/svg11.dtd"> <svg width="500.00000000000006" height="500" viewBox="0 0 500 500" xmlns="http://www.w3.org/2000/svg" xmlns:xlink="http://www.w3.org/1999/xlink" fill="#008080"><path d="M 418.175,321.00c-21.10,34.10-88.375,59.025-168.175,59.025c-79.75,0.00-147.075-24.925-168.15-59.025C 77.375,313.775, 75.00,317.65, 75.00,321.225 c0.00,3.60,0.00,50.05,0.00,50.05C 75.00,419.75, 153.35,470.00, 250.00,470.00s 175.00-50.25, 175.00-98.725c0.00,0.00,0.00-46.45,0.00-50.05C 425.00,317.65, 422.60,313.775, 418.175,321.00z M 418.425,193.125c-20.725,30.15-88.30,52.25-168.425,52.25s-147.70-22.10-168.425-52.25C 77.275,186.90, 75.00,190.275, 75.00,193.10c0.00,2.825,0.00,58.90,0.00,58.90 c0.00,44.075, 78.35,79.775, 175.00,79.775s 175.00-35.70, 175.00-79.775c0.00,0.00,0.00-56.075,0.00-58.90C 425.00,190.275, 422.70,186.90, 418.425,193.125z M 250.00,30.00 c-96.65,0.00-175.00,29.45-175.00,65.80l0.00,31.475 c0.00,38.55, 78.35,69.80, 175.00,69.80s 175.00-31.25, 175.00-69.80L 425.00,95.825 C 425.00,59.45, 346.65,30.00, 250.00,30.00z" ></path></svg>