<?xml version="1.0" encoding="utf-8"?> <!-- Generator: IcoMoon.io --> <!DOCTYPE svg PUBLIC "-//W3C//DTD SVG 1.1//EN" "http://www.w3.org/Graphics/SVG/1.1/DTD/svg11.dtd"> <svg width="500.00000000000006" height="500" viewBox="0 0 500 500" xmlns="http://www.w3.org/2000/svg" xmlns:xlink="http://www.w3.org/1999/xlink" fill="#008080"><path d="M 483.475,238.575c-9.825-10.425-57.10-56.80-78.725-77.975c-6.65-6.475-16.15-10.60-26.075-10.60c-9.90,0.00-128.65,0.00-128.65,0.00 s-118.75,0.00-128.675,0.00S 101.90,154.15, 95.275,160.625c-21.625,21.175-68.95,67.55-78.75,77.975c-12.225,13.00-18.925,23.375-15.725,36.225l 14.025,76.85 c 3.175,12.85, 17.25,23.375, 31.275,23.375l 407.80,0.00 c 14.025,0.00, 28.10-10.525, 31.275-23.375l 14.05-76.85C 502.40,261.975, 495.70,251.575, 483.475,238.575 z M 351.20,255.225c-2.55,0.00-4.825,1.30-5.975,3.325l-20.425,50.90L 175.225,309.45 l-20.425-50.90c-1.125-2.025-3.45-3.325-5.975-3.325L 60.20,255.225 l 51.025-57.725l 277.60,0.00 l 51.00,57.725L 351.20,255.225 z" ></path></svg>