<?xml version="1.0" encoding="utf-8"?> <!-- Generator: IcoMoon.io --> <!DOCTYPE svg PUBLIC "-//W3C//DTD SVG 1.1//EN" "http://www.w3.org/Graphics/SVG/1.1/DTD/svg11.dtd"> <svg width="500.00000000000006" height="500" viewBox="0 0 500 500" xmlns="http://www.w3.org/2000/svg" xmlns:xlink="http://www.w3.org/1999/xlink" fill="#008080"><path d="M 390.00,114.45c0.00-53.50,0.00-58.725,0.00-58.725C 390.00,35.975, 327.325,0.00, 250.00,0.00S 110.00,35.975, 110.00,55.725c0.00,0.00,0.00,5.225,0.00,58.725 c0.00,53.50, 96.925,97.675, 96.925,135.55c0.00,37.90-96.925,82.05-96.925,135.575c0.00,53.50,0.00,58.725,0.00,58.725C 110.00,464.025, 172.675,500.00, 250.00,500.00 s 140.00-35.975, 140.00-55.725c0.00,0.00,0.00-5.225,0.00-58.725c0.00-53.525-96.90-97.675-96.90-135.575C 293.10,212.125, 390.00,167.925, 390.00,114.45z M 148.50,58.225 c 17.40-10.975, 50.025-27.075, 102.85-27.075c 52.85,0.00, 100.15,27.075, 100.15,27.075c 3.55,2.15, 17.45,9.60, 7.925,15.225 c-20.975,12.425-61.975,25.50-109.45,25.50S 162.90,84.525, 141.925,72.10C 132.40,66.45, 148.50,58.225, 148.50,58.225z M 262.525,250.00 c0.00,29.825, 24.90,49.025, 51.30,74.65c 19.275,18.725, 45.625,44.35, 45.625,60.925l0.00,33.20 c-24.225-12.075-96.775-23.90-96.775-62.60 c0.00-19.60-25.35-19.60-25.35,0.00c0.00,38.70-72.55,50.525-96.775,62.60l0.00-33.20 c0.00-16.55, 26.375-42.20, 45.65-60.925 C 212.575,299.025, 237.475,279.825, 237.475,250.00c0.00-29.825-24.90-49.025-51.275-74.65C 166.925,156.625, 140.55,130.975, 140.55,114.45l-1.175-25.00 C 165.025,103.25, 205.70,116.425, 250.00,116.425s 85.175-13.175, 110.825-26.975l-1.375,25.00c0.00,16.525-26.375,42.175-45.625,60.90 C 287.425,200.975, 262.525,220.175, 262.525,250.00z" ></path></svg>