<?xml version="1.0" encoding="utf-8"?> <!-- Generator: IcoMoon.io --> <!DOCTYPE svg PUBLIC "-//W3C//DTD SVG 1.1//EN" "http://www.w3.org/Graphics/SVG/1.1/DTD/svg11.dtd"> <svg width="500.00000000000006" height="500" viewBox="0 0 500 500" xmlns="http://www.w3.org/2000/svg" xmlns:xlink="http://www.w3.org/1999/xlink" fill="#008080"><path d="M 414.025,85.95c-36.05-36.075-63.125-30.675-63.125-30.675L 224.575,181.60L 80.25,325.925L 55.00,445.00l 119.075-25.25l 144.325-144.325l 126.30-126.30 C 444.70,149.125, 450.125,122.05, 414.025,85.95z M 166.975,405.425l-40.575,8.75c-3.925-7.325-8.65-14.65-17.275-23.30 c-8.625-8.625-15.975-13.325-23.30-17.25l 8.775-40.60l 11.725-11.725c0.00,0.00, 22.10,0.45, 47.025,25.375c 24.95,24.95, 25.40,47.05, 25.40,47.05 L 166.975,405.425z" ></path></svg>