<?xml version="1.0" encoding="utf-8"?> <!-- Generator: IcoMoon.io --> <!DOCTYPE svg PUBLIC "-//W3C//DTD SVG 1.1//EN" "http://www.w3.org/Graphics/SVG/1.1/DTD/svg11.dtd"> <svg width="500.00000000000006" height="500" viewBox="0 0 500 500" xmlns="http://www.w3.org/2000/svg" xmlns:xlink="http://www.w3.org/1999/xlink" fill="#008080"><path d="M 250.00,50.05l-130.00,122.00l 82.50,0.00 l0.00,128.00 l 95.00,0.00 l0.00-128.00 l 82.525,0.00 L 250.00,50.05z M 483.50,338.60l-79.60-53.55l-49.075,0.00 l 85.00,65.20l-88.625,0.00 c-2.55,0.00-4.825,1.30-6.00,3.325l-20.40,55.875L 175.20,409.45 l-20.425-55.875c-1.125-2.025-3.45-3.325-6.00-3.325L 60.175,350.25 l 85.025-65.20L 96.10,285.05 l-79.575,53.55c-11.85,7.075-18.925,23.40-15.75,36.225l 14.025,76.85c 3.175,12.85, 17.275,23.375, 31.275,23.375l 407.825,0.00 c 14.05,0.00, 28.125-10.525, 31.30-23.375l 14.025-76.85C 502.45,361.975, 495.35,345.675, 483.50,338.60z" ></path></svg>